<?xml version="1.0" standalone="yes"?>
<svg xmlns="http://www.w3.org/2000/svg" width="200" height="200">
<path style="fill:#fefefe; stroke:none;" d="M0 0L0 200L67 200C71.9959 200 77.0012 200.09 81.9961 199.995C84.23 199.953 87.134 200.096 88.2184 197.682C89.6572 194.479 87.5448 189.893 86.2045 187C82.6229 179.269 76.4091 173.114 73.5478 165C69.5295 153.604 75.4466 141.165 78 130C62.7254 133.674 69.917 148.765 66.3472 159.996C64.8646 164.661 60.93 166.664 57 169C58.5062 163.366 60.4986 157.876 60.9105 152C61.2725 146.836 60.0638 141.017 61.51 136C62.7686 131.634 66.2445 128.173 68 124C58.5087 126.484 54.7276 136.519 51.6921 145C49.102 152.237 45.7585 158.63 37 157C41.5227 152.746 45.7572 148.603 48.6258 143C52.8852 134.681 55.2769 125.001 62.1844 118.301C67.8749 112.782 75.4369 110.565 83 109C82.555 98.6367 81.1527 88.3291 80.1698 78C78.7213 62.779 79.3408 42.2792 63 34C60.2274 40.7599 58.1391 49.8556 51.9568 54.3472C39.7901 63.1867 24.0581 46.0163 21.5293 35C19.4113 25.7734 23.2578 19.017 27 11C36.5739 18.6095 27.0303 23.9665 25.6258 33C24.7039 38.9293 29.3805 44.6792 34.0147 47.74C35.8589 48.958 37.8502 49.8071 40 50.3148C55.4567 53.9653 54.7485 33.9225 60.0856 25.0154C62.5017 20.9833 67.6596 20.6699 69.9182 17.2731C71.8615 14.3505 67.7159 10.3808 70.618 7.66203C75.7055 2.89615 76.9775 14.512 77 17C77.8736 14.9985 77.9771 12.057 79.5833 10.4653C83.5438 6.54053 83.9762 14.9866 84 17C86.2088 13.7398 87.3899 10.8764 91 9C91.5008 11.6859 91.8826 14.2699 92 17C92.905 15.0067 93.1183 12.0395 94.7369 10.4653C98.7535 6.55862 99.9252 14.6963 100 17C101.027 14.7965 101.477 12.1782 103.317 10.4336C108.755 5.27763 112.82 10.518 113 16C114.084 14.0863 114.794 11.0828 116.633 9.75076C120.777 6.74913 120.976 14.9392 121 17L123 17C123.025 14.8569 122.754 12.1929 124.028 10.3171C128.108 4.30829 132.699 12.0229 133 16C137.804 7.0305 144.281 10.6421 149 18C146.309 18.2348 144.311 18.6069 142 20C145.039 22.4422 147.776 24.9893 148.57 29C149.294 32.6514 148.143 36.2207 150.054 39.6752C152.931 44.8771 160.127 49.4227 166 49.8904C168.722 50.1072 172.241 49.8516 173.307 46.8519C174.774 42.7258 172.323 36.1004 171.424 32C168.82 20.1235 165.16 11.4293 171 0L0 0z"/>
<path style="fill:#060606; stroke:none;" d="M171 0C163.731 10.6793 169.076 22.5277 171.65 34C172.44 37.5188 174.094 42.3379 173.111 45.9414C172.128 49.5455 168.216 50.2455 165 49.6049C159.788 48.567 153.452 44.1381 150.562 39.679C145.952 32.5686 151.18 25.0235 142 20C144.373 18.9877 146.449 18.3784 149 18C146.135 11.5451 134.854 5.04143 134 16C133.337 13.9871 132.984 11.1379 131.4 9.60185C125.287 3.67485 123.015 12.6792 123 17L121 17C120.992 14.7951 121.477 11.4767 119.988 9.6227C116.41 5.16878 114.22 13.8688 114 16C113.367 13.9609 113.2 10.5754 111.397 9.17978C105.43 4.55899 101.159 12.1028 101 17C100.333 14.8324 100.187 11.2531 98.4128 9.66203C94.0086 5.71346 93.0567 14.6554 93 17L91 9C86.8932 10.2852 85.7452 12.9005 85 17C84.3913 14.9665 84.4168 11.2679 82.9776 9.66203C79.0826 5.31612 78.0214 15.1857 78 17C77.1623 14.1931 77.4233 9.77625 75.2585 7.60803C73.6069 5.95381 70.6457 6.02307 69.6219 8.31866C68.3412 11.1903 71.3167 14.7094 69.2677 17.2731C66.8186 20.3377 62.4107 20.2874 60.0856 24.044C54.4844 33.0939 53.9234 57.3685 37 48.8997C31.5817 46.1883 24.8207 39.7011 25.9853 33C27.4167 24.7646 37.9527 16.8764 27 11C19.8433 21.861 18.4806 34.8125 26.1049 45.9853C31.2114 53.4684 44.4796 60.753 52.8951 54.3472C58.4699 50.1037 61.1436 40.494 63 34C71.7773 40.7174 77.8973 52.1233 79.6752 63C80.4818 67.935 79.749 73.0281 80.0895 78C80.7979 88.3446 82.1845 98.6666 83 109C74.8464 110.099 66.1271 112.818 60.5177 119.174C54.208 126.323 52.294 135.96 47.5247 144C44.6135 148.908 40.3875 152.518 37 157C46.1984 159.503 49.3552 152.35 52.0532 145C55.1538 136.554 59.1518 127.481 68 124C65.8204 127.532 62.6752 130.958 61.51 135C59.8745 140.674 61.469 147.164 60.7106 153C59.9985 158.48 57.9185 163.596 57 169C60.2942 167.615 63.7194 166.185 65.5432 162.895C70.2038 154.488 63.5364 140.543 71.2269 133.419C73.1473 131.64 75.5881 130.843 78 130C74.491 141.046 69.5075 154.542 73.5478 166C77.7128 177.811 89.9178 186.499 88 200C95.3331 199.174 95.6729 194.181 93.3843 188C88.318 174.316 79.1252 160.42 85 146C88.3132 152.564 89.9012 158.683 96.0039 163.471C105.467 170.897 118.199 173.211 123 185C128.52 180.128 127.109 174.415 121.906 169.805C114.589 163.322 104.84 158.929 99 151C109.199 155.247 119.445 161.045 128.985 166.633C132.956 168.96 135.299 172.263 140 173C140.388 169.925 141.629 166.095 139.968 163.213C137.737 159.339 131.824 157.843 128 156.139C121.017 153.027 114.948 149.933 110 144C120.245 150.162 131.314 150.239 142 154.965C146.252 156.846 149.358 160.245 153 163C154.135 159.88 155.654 156.4 153.817 153.214C152.216 150.437 148.876 149.334 146 148.436C139.518 146.413 132.711 143.991 126 143C132.4 141.108 138.502 142.826 145 142.985C150.41 143.118 156.721 142.029 161.985 143.43C165.672 144.411 168.188 147.208 172 148C172 144.974 172.623 140.928 170.972 138.228C168.558 134.281 162.945 135.002 159 135C150.369 134.997 137.69 137.465 131 131C137.885 131 144.278 130.326 151 128.765C156.18 127.562 161.885 125.271 167.285 125.99C170.831 126.462 173.89 128.372 177 130C176.998 127.742 177.257 125.219 176.682 123.014C173.806 111.971 158.023 119.528 151 120.675C143.907 121.834 137.197 120.851 131 117.254C128.02 115.525 125.443 113.431 123.019 110.985C107.303 95.1272 118.739 74.381 126.755 58C130.762 49.8139 133.764 41.8367 140 35C146.72 50.8712 163.377 55.9744 179 54C179 40.365 178.356 27.3702 175.424 14C174.365 9.16789 174.009 4.04294 171 0z"/>
<path style="fill:#fefefe; stroke:none;" d="M172 0C176.164 18.2062 179 35.2813 179 54C174.987 54.3167 171.039 55.2753 167 54.6983C155.643 53.0757 145.873 44.3886 140 35C133.003 40.4034 130.519 49.3087 126.755 57C118.963 72.9235 106.954 95.1481 122.055 110.985C124.698 113.756 127.653 115.972 131 117.817C137.326 121.304 144.896 121.836 152 120.675C159.526 119.446 173.666 112.365 176.682 123.999C177.177 125.907 176.993 128.049 177 130C163.737 120.675 145.927 130.998 131 131C135.894 138.144 152.31 134.96 160 135.001C164.43 135.024 169.497 135.227 171.397 140.044C172.351 142.463 171.998 145.453 172 148C168.765 146.881 166.241 144.321 162.961 143.43C158.046 142.095 152.058 143.056 147 142.996C139.987 142.913 133.055 142 126 142C131.911 145.72 139.44 146.53 146 148.749C149.22 149.838 153.06 151.488 154.154 155.043C154.948 157.624 153.65 160.517 153 163C143.645 153.168 133.239 153.062 121 149.225C117.083 147.998 113.762 145.559 110 144C114.151 151.012 121.771 153.874 129 157C132.672 158.588 137.995 160.277 139.933 164.105C141.264 166.734 140.218 170.206 140 173C135.88 171.831 133.569 168.79 129.961 166.633C120.577 161.026 109.496 154.024 99 151C102.696 158.579 112.535 163.051 118.996 168.211C125.507 173.41 128.694 177.86 123 185C119.467 172.942 106.203 170.631 97.0008 163.471C90.5781 158.474 89.3866 152.122 85 146C78.363 157.848 86.4448 170.553 90.6813 182C92.7896 187.696 97.0915 193.994 92 199C95.6986 200.552 100.017 200 104 200L125 200L200 200L200 0L172 0z"/>
</svg>
